<?xml version="1.0" encoding="UTF-8"?>
<svg width="728px" height="197px" viewBox="0 0 728 197" version="1.1" xmlns="http://www.w3.org/2000/svg" xmlns:xlink="http://www.w3.org/1999/xlink">
    <!-- Generator: Sketch 43.2 (39069) - http://www.bohemiancoding.com/sketch -->
    <title>lbl_logo</title>
    <desc>Created with Sketch.</desc>
    <defs></defs>
    <g id="Page-1" stroke="none" stroke-width="1" fill="none" fill-rule="evenodd">
        <g id="Desktop-HD" transform="translate(-640.000000, -335.000000)" fill="#2B2B2B">
            <g id="Hero">
                <g id="Page-1" transform="translate(640.000000, 335.000000)">
                    <path d="M353.041339,102.851556 C354.991754,103.26178 356.01362,104.5023 357.028531,105.894627 C358.954601,108.539062 361.022677,111.081521 363.118575,113.778103 C363.65704,113.296612 364.077263,113.046306 364.326499,112.678959 C365.91755,110.339294 367.462231,107.968341 369.040531,105.619406 C369.893728,104.348177 370.783441,103.101283 371.628524,101.885097 C374.21304,102.796512 375.164193,104.223603 375.470811,106.588183 C375.77511,108.932483 375.710773,111.236803 375.231429,113.507518 C374.946836,114.857547 374.37997,116.180344 373.750505,117.419127 C372.506645,119.866562 371.07441,122.218394 369.840983,124.670465 C369.431773,125.484539 369.392938,126.485183 369.161671,127.503209 C366.602078,128.513703 365.304314,130.849312 363.879034,133.062665 C362.715741,134.869271 361.47362,136.595918 359.704626,137.890903 C359.173696,138.279689 358.782454,138.861418 358.339626,139.365506 C358.254422,139.462268 358.256741,139.691715 358.170378,139.721844 C356.090709,140.451324 355.405021,143.113721 353.484168,143.594633 C351.868193,143.999062 351.395225,145.312009 350.243524,145.97138 C350.019212,146.100009 349.736938,146.32598 349.696365,146.546156 C349.288314,148.791956 347.052148,149.789124 346.158957,151.736527 C345.906824,152.28465 344.847282,152.602747 344.104212,152.7476 C343.337378,152.897089 342.749066,152.522209 342.531709,151.577189 C341.98339,149.19233 342.065117,146.934941 343.147263,144.678133 C344.455461,141.949683 345.53355,139.111144 346.840008,136.381536 C348.653053,132.592762 351.350015,129.385139 353.896276,126.085968 C354.842212,124.859353 355.777715,123.619412 356.800741,122.45885 C357.458027,121.713147 357.430206,121.053197 356.955499,120.270412 C355.249683,117.461424 353.619798,114.603765 351.837473,111.844606 C351.028327,110.592497 350.943123,109.195536 351.169754,107.968921 C351.490282,106.233003 352.371881,104.60138 353.041339,102.851556" id="Fill-1"></path>
                    <path d="M329.560557,126.889206 C330.122207,126.825471 330.277545,126.852124 330.378978,126.789548 C333.943048,124.606904 335.803041,121.029615 337.624201,117.527071 C338.784016,115.298654 337.54943,113.55868 335.053596,113.259124 C334.721475,113.219145 334.3795,113.254489 334.042742,113.262021 C332.309685,113.299683 330.560398,113.636901 328.891099,112.779371 C328.541589,112.599754 328.021672,112.753298 327.318016,112.753298 C328.086589,117.596601 328.818067,122.206401 329.560557,126.889206 M329.515347,130.727809 C329.366385,131.432374 329.158882,132.110865 329.096863,132.802104 C329.049334,133.336321 329.23771,133.998009 328.529417,134.109836 C328.147449,134.170095 327.619997,133.936012 327.299468,133.666586 C323.969564,130.872662 321.999443,127.289001 321.251156,123.023371 C320.959608,121.364515 320.692404,119.701604 320.413029,118.04043 C319.450283,112.325692 318.39364,106.623701 317.564207,100.889842 C317.168908,98.1608124 317.127755,95.3709447 317.084863,92.6059918 C317.068054,91.5665271 317.404812,90.4853447 317.767653,89.4922329 C317.947914,88.9991535 318.526373,88.3809212 318.972099,88.3392035 C319.362182,88.30328 319.973099,88.9134006 320.223494,89.3792476 C321.870188,92.4454947 323.473411,95.4949388 323.897111,99.0809182 C324.177067,101.455927 325.060404,103.760827 325.677697,106.095856 C325.933309,107.064054 326.197035,108.029933 326.544806,109.321442 C327.061245,108.773898 327.422347,108.439577 327.726067,108.059483 C328.701564,106.839242 329.712417,106.175236 331.505175,106.490436 C333.586003,106.856624 335.538156,107.334639 337.456111,108.255904 C340.75008,109.838856 342.516755,112.519795 343.510799,115.861262 C343.622666,116.237301 343.638315,116.677074 343.57108,117.064701 C343.047105,120.073006 342.166666,122.957318 340.484035,125.545551 C340.154232,126.052536 339.728213,126.507374 339.464487,127.043909 C338.792131,128.409583 337.999793,129.617077 336.45801,130.142024 C336.156029,130.24458 335.901576,130.508212 335.644226,130.720277 C333.71178,132.309604 332.223901,132.362909 330.144232,130.917277 C330.039901,130.84543 329.890939,130.837898 329.515347,130.727809" id="Fill-3"></path>
                    <path d="M610.016355,167.713401 C609.558457,169.039095 608.858859,169.332856 607.862496,169.170042 C606.624432,168.968406 605.623432,169.231459 604.527375,170.064654 C603.39654,170.924501 601.833311,171.215945 600.457298,171.751901 C600.081706,171.898492 599.549617,171.914136 599.345011,172.183562 C597.687304,174.360992 595.159011,174.070706 592.925164,174.376636 C589.524546,174.843062 586.400406,173.559665 583.385234,172.179506 C580.041999,170.648701 577.205349,168.327577 574.486362,165.905056 C570.86491,162.677733 569.033317,158.397618 567.970298,153.788398 C566.055241,145.483689 565.957865,137.064256 566.599502,128.610059 C566.911336,124.502609 567.174483,120.391104 567.492693,116.283654 C567.895527,111.082274 568.811903,105.967806 570.324706,100.974436 C572.611298,93.4258594 574.939043,85.8894506 577.28012,78.3570976 C577.856839,76.5024006 578.559916,74.6876829 579.182425,72.8468918 C579.307623,72.4754888 579.326171,72.0693212 579.442094,71.40068 C578.377336,71.3195624 577.407056,71.2650976 576.441413,71.1683359 C574.229011,70.9464212 572.008496,70.7725976 569.813483,70.4324829 C569.062878,70.3160212 568.348789,69.8107741 567.673534,69.3935976 C566.615152,68.7388624 565.604878,68.0082241 564.40275,67.1941506 C564.106566,64.92923 564.528527,64.2014888 566.616311,63.17593 C567.871183,62.5594359 569.121419,61.8676182 570.215738,61.00893 C571.765056,59.7927447 573.597808,59.3605035 575.387088,58.7851476 C578.215623,57.8748918 581.043578,56.9559447 583.906311,56.1662065 C584.853406,55.9048918 584.995992,55.2831829 585.171617,54.5652918 C585.780215,52.0761388 586.260718,49.5481653 587.011324,47.1024682 C588.15433,43.3780094 589.457311,39.7022212 590.740005,36.0217976 C591.712604,33.2325094 592.687521,30.4403241 593.787636,27.7002859 C595.417521,23.6420859 597.083343,19.5943153 598.877839,15.6073829 C600.342534,12.3545653 602.048349,9.21125647 603.582018,5.98798882 C604.072375,4.95837412 604.647355,3.83373588 604.663005,2.74560059 C604.685031,1.09485647 605.825718,0.597141765 606.895693,0.345097647 C608.106515,0.0600270588 609.452967,-0.289358235 610.725228,0.405356471 C611.810273,0.998094706 613.108617,0.883950588 614.18033,1.80637412 C615.192343,2.67723 615.391152,3.86618294 616.082636,4.82684765 C616.203196,4.99487706 616.135381,5.35700941 616.057712,5.59862412 C615.088591,8.61504176 614.094546,11.6233476 613.130062,14.6415035 C613.009502,15.0175418 613.072101,15.4503624 612.961973,15.8316153 C612.646661,16.9197506 612.287298,17.9957182 611.941846,19.0751624 C611.759266,19.6470418 611.591757,20.2258741 611.376718,20.7855859 C611.169795,21.3221212 610.921718,21.8441712 610.670744,22.3615859 C610.560037,22.5887153 610.285878,22.7833976 610.272546,23.0041535 C610.105617,25.8102447 608.519782,28.3451712 608.825241,31.2752565 C608.945801,32.4259682 608.458922,33.6612741 608.149986,34.8316859 C607.209266,38.4020212 606.318394,41.9903182 605.208425,45.5085065 C604.675757,47.1969124 603.655629,48.7265594 602.928789,50.3605006 C602.205425,51.9857506 601.575381,53.6515594 601.664642,55.5978035 C602.898648,55.68008 604.035279,55.8660712 605.159738,55.8092888 C609.052451,55.6122888 612.810693,56.4895182 616.603712,57.1094888 C617.469082,57.2508653 618.326336,57.4930594 619.196343,57.5498418 C621.167623,57.6767329 622.603336,58.6750594 623.87154,60.2018094 C623.759094,60.5639418 623.697655,60.9689506 623.515075,61.3102241 C622.842718,62.5669682 622.106604,63.8016947 623.394515,65.1129035 C623.236859,66.5701241 623.226425,68.0655859 622.857789,69.4671829 C622.679266,70.14973 621.91475,70.7882418 620.938674,70.6549771 C619.738865,70.4910035 618.532101,70.3710653 617.337508,70.1781212 C614.600553,69.73603 611.879247,69.5268624 609.080273,69.5923359 C606.837152,69.6450624 604.672859,70.0350065 602.47089,70.2378006 C602.00082,70.2806771 601.51626,70.4695653 601.068215,70.4000359 C598.529489,70.0066153 597.188833,71.8068476 596.691521,73.6592271 C596.257967,75.27173 596.142623,76.9699859 595.885273,78.6294212 C595.78268,79.2911094 595.849916,80.0518771 595.537502,80.5924682 C594.826311,81.8214006 594.952088,83.1076947 594.879056,84.4189035 C594.820515,85.4711153 594.465789,86.5065241 594.25133,87.5512035 C593.832266,89.5901535 593.397553,91.6256271 593.012107,93.6703712 C592.68868,95.3836918 592.414521,97.0883212 591.953725,98.7912124 C591.314986,101.151156 591.254706,103.675654 591.026336,106.136415 C590.773623,108.872398 590.563222,111.614754 590.420636,114.358268 C590.281527,117.041524 590.253706,119.730574 590.1714,122.417306 C590.085037,125.222818 589.696693,128.058459 589.97433,130.826889 C590.361515,134.68693 588.819152,138.379521 589.397031,142.243618 C589.626559,143.782536 589.052738,145.426327 589.041145,147.023765 C589.031292,148.217354 589.157069,149.473518 589.532661,150.597577 C590.876215,154.615798 593.215553,158.007095 596.139725,161.082612 C598.660483,163.73458 601.771871,165.430518 604.900069,167.127615 C605.679655,167.550586 606.693406,167.584771 607.611521,167.696018 C608.330247,167.783509 609.066941,167.713401 610.016355,167.713401" id="Fill-5"></path>
                    <path d="M470.979948,178.404822 C469.165744,178.821419 467.896961,179.957066 466.796846,181.365037 C466.063629,182.304264 465.250425,183.044752 464.000769,183.497272 C461.979642,184.227911 460.006623,185.041405 457.862037,185.343858 C457.60005,185.38094 457.243005,185.417443 457.109693,185.591846 C455.941183,187.122072 454.219139,186.999816 452.587515,187.18349 C450.922273,187.37064 449.266884,187.703802 447.598164,187.786078 C443.287546,187.999881 439.02098,187.724661 434.792088,186.696205 C432.322336,186.094775 429.712317,186.055955 427.252999,185.423816 C421.917617,184.052928 416.476744,182.872087 412.094833,179.140096 C411.181935,178.363105 410.057476,177.841055 409.079082,177.133593 C404.223623,173.621199 402.919483,168.514843 403.447515,163.005216 C403.823687,159.087234 404.547629,155.174466 405.122031,151.259381 C405.590941,148.062187 406.500362,144.928728 406.962897,141.730955 C407.590043,137.395216 408.424113,133.10699 409.491769,128.866855 C410.175139,126.151152 411.441024,123.528734 411.75112,120.785799 C412.129031,117.448387 412.684884,114.149216 413.244215,110.851784 C414.25391,104.897749 415.392279,98.9645724 416.571222,93.0412459 C416.855814,91.60894 417.569324,90.2670224 417.972738,88.8515194 C418.321088,87.62954 418.507725,86.3617871 418.768553,85.1143135 C419.721445,80.5641929 420.868508,76.0783871 422.483903,71.7003518 C423.546922,68.8200959 424.361285,65.8291724 425.044075,62.8318753 C426.115209,58.1293694 428.092285,53.7669782 429.801578,49.3008724 C430.749833,46.8221488 432.264375,44.6991841 433.967292,42.6897841 C435.00133,41.4689635 436.053916,40.6966076 437.803203,41.4324606 C439.331655,42.0761871 440.977769,42.4487488 442.581572,42.9082224 C443.76805,43.2489165 444.185375,44.2356547 444.67805,45.2044312 C445.219413,46.2676518 445.932922,47.2509135 446.399515,48.3425253 C447.314731,50.4840312 448.143005,52.6643576 448.945776,54.8510576 C449.811725,57.2086841 449.024024,59.4724459 448.402094,61.7211429 C447.426597,65.2445459 446.505005,68.7882282 445.364317,72.2583253 C444.577776,74.64724 443.459113,76.9272253 442.487674,79.2547224 C442.435508,79.3792959 442.303935,79.5061871 442.319005,79.6180135 C442.563604,81.4982047 441.271636,83.0342253 441.170203,84.8628488 C441.108763,85.9758988 440.680425,87.0918459 440.270636,88.1498518 C440.11298,88.5560194 439.583209,89.01839 439.165884,89.0827047 C438.208355,89.2298753 438.157929,89.7623547 438.265158,90.4982076 C438.480776,91.9867165 437.678585,95.0523841 436.875814,96.0993812 C436.615566,96.4383371 436.435304,96.8815871 436.348362,97.3039782 C435.768164,100.125134 435.35026,102.987428 434.629215,105.771502 C433.936572,108.447225 432.710101,110.999534 432.173375,113.696116 C431.884145,115.148122 431.892839,116.591437 430.854744,117.768222 C430.824024,117.803566 430.843731,117.901487 430.863438,117.962325 C431.791406,120.855908 429.631171,123.270896 429.614362,126.017308 C428.697406,126.976814 428.504973,128.247464 428.110833,129.441052 C426.894215,133.126111 425.638183,136.798422 424.397222,140.475369 C423.693566,142.558934 423.282037,144.813425 422.196992,146.675655 C421.211062,148.367537 421.181502,150.198478 420.525954,151.872978 C419.944018,153.360908 420.124279,155.017446 419.507566,156.317646 C418.650311,158.127149 418.937801,159.846843 418.938381,161.633169 C418.938381,163.242775 419.847222,164.307155 421.122961,165.034896 C425.002343,167.24709 429.205731,168.774419 433.432884,170.072302 C436.749457,171.090328 440.299617,171.352802 443.750082,171.932214 C446.445884,172.385314 449.146324,172.810022 451.845024,173.24574 C452.044992,173.278187 452.249597,173.333811 452.446088,173.318166 C455.378954,173.08814 457.97912,174.376172 460.704483,175.098699 C463.472738,175.832234 466.257222,176.500875 469.026636,177.226299 C469.715801,177.406496 470.376566,177.696781 471.050661,177.936658 C471.026897,178.092519 471.003132,178.248381 470.979948,178.404822" id="Fill-7"></path>
                    <path d="M642.894366,183.751344 C641.82555,184.236891 640.851792,184.650012 639.905276,185.119336 C639.2022,185.467562 638.563461,185.788556 637.935735,184.975062 C637.816913,184.821518 637.447117,184.802977 637.198461,184.817462 C635.885047,184.895103 634.906073,184.417089 634.600034,183.166139 C633.976945,180.617306 633.445436,178.041241 633.013041,175.453009 C632.342423,171.439424 632.250264,167.378906 632.555143,163.332294 C633.004926,157.351606 633.63613,151.385403 634.115474,145.407033 C634.487009,140.772318 634.719436,136.126594 635.060251,131.489562 C635.376722,127.195541 635.799843,122.909053 636.097187,118.613874 C636.495964,112.853941 636.756792,107.087056 636.635073,101.309741 C636.629276,101.039156 636.603194,100.767412 636.622901,100.498565 C636.920245,96.2717562 637.019939,92.0171356 637.587385,87.8256709 C638.1102,83.9598356 639.218429,80.1774356 639.922085,76.3313003 C640.960761,70.6577003 643.397474,65.4285091 644.990264,59.9316297 C645.757678,57.2819797 646.892569,54.7412591 647.779964,52.1228974 C648.36248,50.4020444 648.791397,48.6296238 649.30262,46.8838562 C650.135531,44.0377856 651.004378,41.201565 651.797296,38.3444856 C651.945678,37.8102679 651.779327,37.1949326 651.812366,36.6201562 C651.853518,35.9173297 651.884818,35.202915 652.040735,34.5203679 C652.272582,33.5075562 653.119983,33.7468532 653.85262,33.7225179 C655.525397,33.6674738 657.195856,33.5626003 658.902251,33.4762679 C660.092206,35.5140591 660.588359,37.4788444 660.152487,39.8666003 C659.747913,42.0845885 660.0412,44.4294679 660.02671,46.7187238 C659.997729,51.2323415 660.005264,55.7465385 659.929913,60.2589974 C659.84355,65.4482091 659.769939,70.6397385 659.528818,75.8231562 C659.361308,79.4328915 659.0402,83.0495797 657.893716,86.5237326 C657.788225,86.8424091 657.628831,87.1500768 657.570869,87.4757062 C656.990671,90.7482238 656.300926,94.0079944 655.889397,97.3019503 C655.35499,101.575112 655.046054,105.876086 654.638003,110.164891 C654.555117,111.035747 654.462378,111.906024 654.376015,112.77688 C654.11113,115.443912 653.901888,118.117897 653.56455,120.775659 C653.312996,122.757247 652.862054,124.713341 652.561232,126.689715 C652.267945,128.616259 651.962487,130.548018 651.82048,132.489047 C651.521977,136.58375 651.553856,140.716115 651.024085,144.776633 C650.506487,148.745024 650.574882,152.770777 649.504907,156.702665 C648.808206,159.264244 648.882397,162.030356 648.551436,164.697389 C648.21178,167.432212 647.808945,170.159503 647.401474,172.885636 C647.356843,173.184612 647.112245,173.464468 646.926767,173.729839 C646.23992,174.711362 645.515977,175.58975 645.554811,176.978021 C645.574518,177.669259 644.871442,178.678015 644.218213,179.029718 C642.838143,179.773683 642.318805,180.617886 642.871181,182.124356 C643.023041,182.538636 642.894366,183.05605 642.894366,183.751344" id="Fill-9"></path>
                    <path d="M554.05947,171.991951 C551.957196,173.679777 550.061266,175.20363 548.161279,176.724007 C548.005362,176.84916 547.833795,176.95751 547.658171,177.054271 C544.618075,178.732827 541.34961,179.205627 537.98319,178.578124 C534.384922,177.907745 530.989521,176.741389 528.034629,174.382024 C525.880769,172.663489 524.132642,170.663939 522.715476,168.35788 C520.643343,164.985124 519.52468,161.254292 518.724808,157.398886 C517.875088,153.301286 516.950018,149.207163 516.970304,145.006427 C516.989432,141.075119 516.538489,137.208704 515.944381,133.338813 C515.62791,131.273789 515.431999,129.18443 515.289413,127.099127 C515.103935,124.38806 515.416929,121.716392 516.02147,119.05921 C516.404018,117.376019 516.542546,115.637204 516.819024,113.732098 C516.214483,113.875792 515.845266,113.86826 515.600088,114.038607 C514.674438,114.684651 513.711693,114.582674 512.729241,114.275586 C511.584496,113.918089 510.422941,113.594777 509.314712,113.145154 C507.95261,112.591816 507.151578,110.366874 507.706273,108.841283 C508.512521,106.623295 510.033438,105.007895 512.026164,103.798083 C514.675018,102.190795 517.308222,100.558013 519.971566,98.9767979 C520.984738,98.3753685 521.4664,97.5230538 521.70926,96.3960979 C522.728808,91.6657803 523.793566,86.9453126 524.872234,82.2283215 C525.033368,81.5202803 525.390413,80.8591715 525.597916,80.1586626 C526.662094,76.5616744 527.572674,72.9096421 528.842617,69.3873979 C529.221107,68.3375038 530.502062,67.5008332 531.549432,66.8594244 C531.991101,66.5894185 532.903999,67.0523685 533.590846,67.2296685 C534.500266,67.4654891 535.400992,67.7378126 536.2994,68.0136126 C537.184476,68.2859362 537.586152,68.7888656 537.45168,69.8167421 C537.234903,71.4709626 537.207661,73.1489391 537.070871,74.8147479 C536.96712,76.0836597 536.805406,77.3485156 536.691801,78.6168479 C536.561967,80.0746479 536.516177,81.5428774 536.324324,82.9919862 C536.04205,85.1294362 535.661241,87.2535597 535.326801,89.3846362 C535.253769,89.8504832 535.143642,90.3209656 535.152916,90.7873921 C535.174362,91.9027597 535.595744,92.2446126 536.691801,91.9804009 C537.672515,91.7445803 538.609177,91.267145 539.597425,91.1356185 C542.137311,90.7966626 544.691687,90.5486744 547.246642,90.3441421 C549.32689,90.1784303 551.415833,90.1314979 553.500718,90.0266244 C555.101043,89.9460862 556.013941,91.2567156 555.317241,92.6930774 C554.51389,94.350195 553.746476,96.0351244 552.796483,97.6064891 C552.365827,98.3191656 551.585661,98.8667097 550.869833,99.3487803 C549.771457,100.08811 548.460941,100.56033 547.487183,101.423654 C546.761502,102.066221 546.102476,102.596383 545.160597,102.887248 C542.925011,103.576748 540.725941,104.386186 538.507744,105.133048 C536.279693,105.882807 535.930183,106.040986 536.428075,108.240433 C537.008852,110.806648 536.479661,113.314921 536.609496,115.844633 C536.695859,117.527245 536.761935,119.204063 536.124935,120.971269 C535.603859,122.414004 536.316789,124.27971 536.382865,125.961742 C536.446043,127.560339 536.381126,129.164151 536.370693,130.766224 C536.369534,130.965542 536.308094,131.181083 536.363158,131.362439 C537.171725,134.028892 536.837285,136.830927 537.342712,139.532724 C537.539203,140.582039 537.806986,141.626139 537.900884,142.684724 C538.054483,144.411371 538.100273,146.147869 538.176203,147.881469 C538.269521,150.022974 538.34661,152.165639 538.430655,154.307724 C538.512961,156.375645 538.734375,158.449939 538.642795,160.510327 C538.514699,163.402171 539.637999,165.621319 541.717088,167.509042 C543.711553,169.319704 545.954674,170.472733 548.67482,170.804157 C550.452508,171.020857 552.190203,171.567242 554.05947,171.991951" id="Fill-11"></path>
                    <path d="M677.531052,142.106703 C679.361485,142.235912 680.602447,141.3019 681.940785,140.800709 C684.57167,139.816289 687.157925,138.705556 689.72911,137.571068 C690.446676,137.25413 691.206555,136.794077 691.673148,136.189171 C693.230001,134.17108 694.697014,132.081141 696.124033,129.969186 C696.679307,129.14758 696.326899,128.351468 695.397192,127.895471 C695.103906,127.751197 694.812358,127.603447 694.459371,127.427306 C694.587466,127.053586 694.665715,126.733171 694.805982,126.441727 C694.935237,126.17288 695.130568,125.9359 695.29518,125.687333 C693.458371,124.449709 693.451995,124.434644 691.723575,125.176871 C690.592161,125.663577 689.16746,125.657203 688.533938,127.013027 C686.259517,127.597074 684.620938,129.269256 682.679797,130.424024 C680.193817,131.903262 678.291511,133.7371 678.275861,136.903586 C678.272383,137.492847 677.953594,138.072839 677.874186,138.669633 C677.726963,139.772833 677.648715,140.885303 677.531052,142.106703 M707.742473,128.90133 C708.029383,129.939636 707.841587,130.758924 707.113008,131.674394 C706.345014,132.638536 706.062161,133.971183 705.425161,135.060477 C703.974377,137.541518 702.105689,139.590897 699.303817,140.62225 C698.050683,141.084041 696.834645,141.647809 695.616868,142.200568 C695.337492,142.327459 695.138103,142.620062 694.876696,142.79968 C693.842078,143.50888 692.874696,144.386109 691.740383,144.869339 C688.900836,146.07915 685.992313,147.130783 683.091906,148.192265 C682.49432,148.410703 681.696186,148.658112 681.193657,148.434459 C680.108033,147.95065 679.220059,148.56193 678.257313,148.664486 C677.50439,148.745603 677.387307,149.465812 677.440632,150.090418 C677.606403,152.034344 677.832454,153.972477 678.015613,155.914665 C678.612619,162.247636 682.279861,166.601915 687.410059,169.75913 C690.375383,171.584277 693.702969,172.82248 696.876957,174.306933 C697.23574,174.474383 697.64495,174.56593 698.040829,174.620394 C701.98339,175.160986 705.928269,175.682456 709.871989,176.217833 C711.732562,176.470456 713.485906,176.144827 715.202154,175.397965 C717.182708,174.5358 719.275129,173.900186 721.182651,172.905915 C724.029734,171.422621 726.730753,173.48185 727.717842,175.755462 C728.105606,176.648336 727.70509,177.304809 727.128371,177.939265 C725.635855,179.583056 723.912651,180.605718 721.569836,180.594709 C720.819231,180.591233 719.883727,181.157318 719.342944,181.747739 C716.950861,184.352774 714.094504,185.659927 710.533912,185.396294 C706.439492,185.092683 702.345651,184.746194 698.244855,184.574109 C695.877116,184.475609 693.529664,184.455909 691.269734,183.629089 C688.872434,182.75128 686.466441,181.898386 684.064504,181.035062 C682.739498,180.558786 681.364065,180.188541 680.09818,179.587691 C675.015511,177.173862 671.698358,172.93025 668.72318,168.3697 C665.831466,163.9372 664.73425,158.913121 664.491969,153.758674 C664.344167,150.62058 664.805543,147.436133 665.190989,144.2963 C665.443702,142.233015 666.021581,140.206233 666.505562,138.175394 C667.019683,136.014768 667.616689,133.879636 669.415243,132.353465 C669.55667,130.898562 670.765753,130.096077 671.482161,128.995194 C672.611836,127.260436 674.128116,125.815383 675.985791,125.029121 C678.569727,123.93635 680.775753,121.942015 683.723689,121.713147 C685.364008,120.011994 687.796664,121.167921 689.60681,120.080944 C692.710084,120.471468 695.937976,120.194509 698.652906,122.353397 C700.419001,123.757312 702.45346,124.818794 704.305339,126.121312 C705.508625,126.966674 706.600046,127.969056 707.742473,128.90133" id="Fill-13"></path>
                    <path d="M483.805152,127.315596 C486.029725,128.496437 488.065343,129.884707 489.724209,131.764319 C490.058648,132.143834 490.217464,132.694275 490.401203,133.186775 C490.612763,133.751122 490.604069,134.478284 490.968069,134.890825 C492.143534,136.221154 492.16382,137.936793 492.278005,139.440366 C492.606648,143.76046 492.576508,148.107787 492.688954,152.444684 C492.69591,152.711213 492.667508,152.992228 492.74112,153.241954 C493.261617,155.021907 493.896878,156.775207 494.299712,158.580075 C494.479394,159.381401 494.351298,160.331637 494.092209,161.12659 C493.873693,161.794651 493.757769,162.343934 493.960056,163.032854 C494.122929,163.58909 494.232476,164.282066 494.038884,164.789631 C493.791967,165.436254 493.942088,165.877187 494.115973,166.478616 C494.304929,167.13451 494.220884,167.93236 494.048158,168.615487 C493.703285,169.980581 493.563597,171.334666 493.547368,172.747851 C493.525343,174.688301 492.945725,176.611369 493.479553,178.578472 C493.583884,178.962622 493.395508,179.548407 493.138738,179.886204 C492.275687,181.021851 492.185846,182.388684 492.488986,183.567207 C492.931814,185.286901 492.706922,186.748178 492.032827,187.764466 C490.986037,188.598819 490.273107,189.166063 489.378757,189.87874 C489.281961,189.805154 488.839132,189.60236 488.593954,189.258769 C487.072457,187.122478 485.556757,184.979813 484.112929,182.791375 C481.579419,178.950454 480.743031,174.579372 480.365699,170.103416 C479.805209,163.442499 479.079527,156.78216 478.881878,150.108496 C478.730018,144.999822 478.823336,139.833207 479.871865,134.776101 C480.324546,132.593457 481.075731,130.51221 482.753725,128.888119 C483.171629,128.48311 483.420865,127.903699 483.805152,127.315596" id="Fill-15"></path>
                    <path d="M472.521847,109.41409 C477.209217,105.904593 482.416503,105.093416 487.932726,105.683837 C489.633325,105.865772 490.815745,107.131787 491.822541,108.334646 C492.862955,109.578643 493.927134,110.915925 493.571248,112.844787 C493.438516,113.567313 493.837873,114.432375 494.13058,115.179237 C494.544427,116.234346 494.438936,117.216449 493.760783,118.045007 C491.681115,120.58341 489.355688,122.88831 486.534108,124.589463 C486.027522,124.894813 485.127955,124.566287 484.412707,124.502551 C483.636599,124.432443 482.701675,124.009472 482.119739,124.302654 C480.565783,125.084281 479.627382,124.230807 478.784038,123.295057 C477.941274,122.358728 477.335573,121.211493 476.595401,120.178981 C475.935796,119.257137 475.243153,118.359049 474.548771,117.463278 C473.569796,116.199001 473.097987,114.776546 473.005828,113.178528 C472.936274,111.972193 472.702688,110.775707 472.521847,109.41409" id="Fill-17"></path>
                    <path d="M260.25148,13.564435 C262.372301,16.0512703 263.721072,18.4761085 263.874091,21.444435 C263.881046,21.5782791 263.89032,21.7225526 263.944804,21.8407526 C265.727709,25.7089056 264.910448,29.5950203 264.085072,33.5031526 C263.501397,36.2675262 263.049295,39.0597115 262.527059,41.8374115 C262.440117,42.2980438 262.293473,42.7476674 262.17755,43.203085 C261.895855,44.306285 261.34232,45.4210732 261.386371,46.5121056 C261.516206,49.7591291 260.218441,52.6567674 259.489282,55.6969409 C259.086448,57.3766556 258.968206,59.1224232 258.598989,60.8119879 C258.225136,62.5212526 258.618696,64.5022615 256.938964,65.7978262 C256.766238,65.9305115 256.790582,66.3007556 256.689728,66.5464262 C256.339639,67.4010585 255.980855,68.251635 255.613378,69.098735 C255.274881,69.8803615 254.939862,70.6637262 254.568906,71.4302879 C254.370097,71.8422497 254.0629,72.2026438 253.871046,72.6169232 C253.651371,73.0903026 253.453722,73.5851203 253.337798,74.0921056 C252.948295,75.7920997 252.600524,77.5019438 252.234206,79.2071526 C252.066117,79.9916762 251.761238,80.7721438 251.743269,81.5595644 C251.656906,85.3292174 250.445505,88.9117203 249.948773,92.6130026 C249.819518,93.5696115 249.230626,94.4607468 248.881696,95.3924409 C247.930543,97.9291056 247.931703,100.644809 247.407148,103.260273 C247.110964,104.736614 246.49425,106.146323 246.088518,107.604123 C245.892607,108.312744 245.841601,109.062503 245.741327,109.796038 C245.696696,110.128041 245.821314,110.567814 245.649747,110.783356 C244.539199,112.169888 245.271836,114.060509 244.313148,115.470797 C244.638894,117.680673 242.956843,119.656467 243.559066,121.904006 C243.607754,122.085361 243.557327,122.318864 243.487773,122.503117 C242.648486,124.711256 242.535461,127.064247 242.224785,129.361035 C241.901359,131.758061 241.705448,134.157406 240.748499,136.414794 C240.672569,136.593253 240.679524,136.814588 240.677206,137.016223 C240.637792,140.757485 239.326696,144.264085 238.694333,147.8941 C238.223104,150.597056 238.049798,153.351579 237.746078,156.083506 C237.731008,156.217929 237.787811,156.391753 237.721734,156.4833 C236.527142,158.130567 236.932875,160.162564 236.396728,161.973226 C235.754511,164.144282 235.19518,166.309544 232.851206,167.106235 C232.761365,170.035161 231.985836,172.554444 230.727486,174.9422 C230.572728,175.236541 230.346097,175.547685 230.337403,175.857091 C230.265531,178.315535 229.046015,180.422276 228.278021,182.663441 C227.628849,184.557538 226.569887,186.125426 224.694824,187.093623 C222.779766,188.083259 222.663843,190.103667 222.281875,191.90332 C222.077849,192.866882 222.099295,193.877956 222.039015,194.623079 C220.540123,194.782417 219.238881,194.940597 217.933002,195.04605 C217.618849,195.071544 217.25369,194.989847 216.973155,194.842097 C214.579913,193.578979 212.29448,192.134506 211.112059,189.582197 C210.74632,188.792459 210.65648,187.699109 210.865722,186.849111 C212.073645,181.943232 213.50762,177.091238 214.663378,172.17435 C215.308492,169.4262 215.606416,166.592297 215.982008,163.786785 C216.921569,156.767791 217.810123,149.742423 218.731715,142.721691 C219.205263,139.115432 219.681709,135.509173 220.202206,131.909288 C220.578957,129.307729 221.032218,126.717759 221.447225,124.121994 C222.094658,120.06727 222.660365,115.998061 223.41155,111.963038 C223.903645,109.324397 224.59339,106.717044 225.319072,104.13055 C226.500913,99.9217026 227.7639,95.7354526 229.030365,91.5515203 C229.965289,88.4620968 230.96455,85.3917938 231.928454,82.3110615 C232.567773,80.2657379 233.245925,78.2302644 233.818588,76.1658203 C234.66425,73.1204321 235.287339,70.0060938 236.266894,67.0058997 C237.615664,62.8752732 238.347722,58.6415115 238.982983,54.3666115 C239.754454,49.172185 241.691537,44.3578526 244.145059,39.7550056 C246.745804,34.8769379 249.454938,30.0562321 252.09104,25.197285 C252.570384,24.3136821 252.952932,23.3744556 253.339537,22.4439203 C254.523696,19.5955321 256.492658,17.2749879 258.424524,14.9393791 C258.865613,14.4063203 259.554199,14.0772144 260.25148,13.564435" id="Fill-19"></path>
                    <path d="M74.2275987,172.330038 C73.781293,173.614594 73.483949,174.464011 73.1918217,175.315167 C72.9530191,176.011041 72.7008854,176.703438 72.4916433,177.408002 C72.2684904,178.155444 71.9236178,178.915632 71.9247771,179.669446 C71.9276752,181.137096 71.299949,181.998682 70.0143567,182.665585 C67.5741656,183.931599 64.9398025,184.400344 62.2770382,184.666294 C59.8322102,184.910226 57.6586433,185.422426 56.2472739,187.700094 C55.9197898,188.227938 55.1964268,188.517064 54.6411529,188.89542 C52.096051,190.62902 49.5776115,192.403179 46.9872994,194.065511 C45.5081146,195.015167 43.7930255,195.379038 42.0953248,195.857632 C36.8689108,197.332235 31.9247707,196.025661 26.9881656,194.663464 C25.8144395,194.339573 24.7485223,193.428158 23.7776624,192.614664 C22.7001529,191.710782 21.8104395,190.586144 20.7978471,189.599985 C19.5024013,188.339185 19.3261975,186.603846 18.8358408,185.019735 C18.4787962,183.869602 18.3675096,182.641829 18.1629045,181.445344 C18.0730637,180.916341 17.9762675,180.380964 17.9640955,179.846167 C17.9032357,177.227226 17.8719363,174.607705 17.8261465,171.988764 C17.7461592,167.327396 17.3288344,162.721652 16.3197197,158.140823 C15.6856178,155.262885 15.6537389,152.252841 15.3424841,149.303055 C15.0955669,146.968026 15.0057261,144.59997 14.5437707,142.306658 C13.6401465,137.817955 12.420051,133.391829 11.5338153,128.900229 C10.8950764,125.663635 10.5449873,122.367941 10.1433121,119.089049 C9.88190446,116.949282 9.72482803,114.795608 9.58398089,112.643673 C9.33474522,108.839255 8.44735032,105.167523 7.19711465,101.593711 C5.83443312,97.6965876 5.4762293,93.6998053 5.62345223,89.6219053 C5.72198726,86.9038847 5.35972611,84.2478612 4.84502548,81.5761935 C4.09268153,77.6738553 3.59884713,73.7216876 2.94851592,69.79907 C2.55205732,67.40552 2.1028535,65.0195024 1.61829299,62.6421759 C0.699598726,58.1372494 0.50310828,53.5714847 0.362261146,48.9964494 C0.312414013,47.3793112 0.196490446,45.7644906 0.084044586,44.14967 C-0.242859873,39.4604906 0.430656051,34.8680729 1.32732484,30.2849259 C1.85825478,27.57212 5.55447771,25.2874994 8.63282803,26.3831671 C8.96784713,26.5025259 9.31329936,26.8449582 9.46747771,27.1723259 C9.95435669,28.2007818 10.5455669,29.2356112 10.7495924,30.3324376 C11.406879,33.8627935 12.811293,37.0194288 14.8677771,39.9518318 C15.4531911,40.7873435 15.6653312,41.91372 15.9331146,42.9369612 C16.5382357,45.2505524 16.5909809,47.5693582 15.8363185,49.8812112 C15.7209745,50.2363906 15.7650255,50.6993406 15.8821083,51.0649494 C16.9978726,54.5437376 16.9688917,58.0555524 16.4489745,61.6374759 C16.2206051,63.2140553 16.3672484,64.8595847 16.4663631,66.4662935 C16.5985159,68.5985288 17.0511975,70.7272876 17.0071465,72.8496729 C16.9312166,76.4912759 18.2915796,79.6461729 19.8553885,82.7744171 C20.7955287,84.6540288 21.3281975,86.6054876 21.4597707,88.7296112 C21.5438153,90.0912288 21.9420127,91.4928259 22.484535,92.7547847 C23.770707,95.7515024 24.328879,98.8391876 24.4772611,102.089108 C24.5543503,103.774617 25.2638025,105.439267 25.7477834,107.095805 C26.3129108,109.029302 27.0733694,110.915288 27.4953312,112.876596 C27.7393503,114.011085 27.4414268,115.253923 27.4663503,116.446352 C27.4802611,117.085444 27.6674777,117.720479 27.7636943,118.358991 C27.8332484,118.82252 28.0737898,119.379335 27.905121,119.737991 C27.3173885,120.987782 27.8680255,122.10257 28.1636306,123.237638 C28.5873312,124.862308 29.1246369,126.456849 29.5605096,128.078044 C29.6793312,128.517238 29.6845478,129.019008 29.6126752,129.471529 C29.1553567,132.354682 29.2254904,135.205967 29.9459554,138.045085 C30.0920191,138.622179 30.1279554,139.254896 30.0775287,139.849952 C29.828293,142.795682 30.0184076,145.757055 29.8792994,148.688299 C29.6393376,153.751779 30.3922611,158.714441 30.7040955,163.721138 C30.7661146,164.713091 30.4363121,165.727641 30.4751465,166.724229 C30.556293,168.802579 30.6206306,170.861808 30.5510764,172.953485 C30.4699299,175.389332 31.252414,177.850094 31.6245287,180.305641 C31.7636369,181.221691 32.3241274,181.702602 33.0944395,182.081538 C37.4438917,184.222464 41.8773885,184.545776 46.4244904,182.757711 C49.3225796,181.618008 51.9528854,180.044905 54.5455159,178.304932 C58.0881401,175.927026 62.1263376,174.450685 66.2416242,173.396735 C68.7606433,172.75127 71.4286242,172.68232 74.2275987,172.330038" id="Fill-21"></path>
                    <path d="M138.358545,73.6130479 C139.10799,73.6640362 139.76122,73.7034362 140.413869,73.753845 C144.722169,74.088745 149.028729,74.4300185 153.337029,74.7602832 C155.274691,74.9086126 157.224525,74.9491715 159.148857,75.1931038 C163.131411,75.6966126 166.536666,77.5988215 169.795277,79.8086979 C169.8515,79.8463597 169.902506,79.8909744 169.95757,79.9309538 C170.911621,80.6297244 171.400239,81.7248126 171.198532,82.7306715 C171.082608,83.3100832 169.968003,83.6895979 168.984392,84.3837332 C168.239583,86.1555744 167.768933,86.3351921 165.338016,86.2969509 C161.666137,86.2390097 158.147857,85.4249362 154.580889,84.6699626 C151.224901,83.9601832 147.758207,83.7631832 144.333825,83.3964156 C142.724806,83.2243303 141.102455,83.1681274 139.484742,83.0893274 C138.695882,83.0510862 137.903545,83.0829538 137.201627,83.0829538 C135.96878,87.0432332 134.762016,90.8007185 133.639296,94.5831185 C133.220232,95.9974626 132.96578,97.4639538 132.691041,98.9165391 C131.990863,102.611448 131.31271,106.310413 130.642672,110.011116 C130.141882,112.782442 129.656742,115.556666 129.193048,118.334366 C129.104366,118.86163 129.120016,119.410913 129.132188,119.948607 C129.17508,121.785342 128.958303,123.572827 128.24943,125.285569 C128.124232,125.588601 127.978169,125.943201 128.023959,126.246813 C128.556048,129.738348 127.359717,133.049686 126.982385,136.44388 C126.947029,136.766033 126.767927,137.08413 126.609111,137.379051 C125.551309,139.34036 125.733309,141.501566 125.573914,143.610045 C125.51885,144.345319 125.407564,145.077116 125.309608,145.808913 C125.221506,146.468283 125.062111,147.123019 125.030232,147.784127 C124.965895,149.121989 125.165283,150.477813 124.349761,151.710221 C124.119653,152.057869 124.179354,152.621057 124.17008,153.087483 C124.126608,155.442792 123.868099,157.825913 124.136462,160.147036 C124.4425,162.795527 124.099366,165.38376 124.029232,167.997486 C124.015322,168.529966 124.00315,169.075192 123.883748,169.58971 C122.978965,173.491469 124.389175,176.608704 127.209596,179.184769 C128.797169,180.635036 130.671653,181.367413 132.92057,181.38016 C135.467411,181.394645 138.056564,181.386533 140.501392,182.380224 C141.925513,182.959057 142.244882,183.387242 142.181704,184.722786 C142.123162,185.94071 141.20099,186.005604 140.351271,186.224042 C139.438373,186.458704 138.541704,186.757101 137.625328,186.975539 C136.333939,187.283786 135.090659,187.807574 133.686825,187.576969 C132.977952,187.460507 132.201844,187.593192 131.47964,187.73341 C127.679086,188.471001 123.956201,188.338895 120.458787,186.551989 C117.594895,185.088974 115.332067,182.846651 113.266309,180.423551 C109.39736,175.886177 108.693124,170.533571 109.248398,164.830421 C109.528354,161.96523 109.598487,159.080919 109.794398,156.207616 C109.995525,153.252036 110.203029,150.296457 110.471971,147.346671 C110.618035,145.739963 110.895672,144.145421 111.115347,142.545666 C111.645697,138.686783 112.189959,134.829639 112.702341,130.968439 C112.923755,129.300313 113.012436,127.613066 113.283118,125.95421 C113.933449,121.971913 114.090525,117.914292 115.380755,114.02528 C115.989933,112.187966 116.141213,110.197107 116.479131,108.272301 C116.770099,106.616342 116.936449,104.933151 117.323634,103.300948 C118.753551,97.275645 120.112175,91.2283244 122.284003,85.406395 C122.613806,84.5222126 122.866519,83.6067421 123.10822,82.6930097 C123.388175,81.6367421 123.043882,81.1888568 121.917105,81.1535126 C119.829901,81.0880391 117.734583,81.1558303 115.657232,80.9883803 C111.559914,80.6575362 107.452162,80.3359626 103.390201,79.732795 C101.851315,79.5039274 100.413283,78.5363097 98.9584427,77.8444921 C98.6211051,77.683995 98.2750732,77.3189656 98.151035,76.9707391 C97.6102516,75.4538391 97.0486019,73.9317244 96.6944554,72.3661538 C96.4231943,71.1656126 96.8561688,70.7727715 98.1353854,70.8550479 C100.350685,70.9975832 102.557869,71.2548421 104.773169,71.3886862 C105.973557,71.4616921 107.185538,71.3336421 108.389984,71.3765185 C113.854041,71.5683038 119.317519,71.7803685 124.780417,72.0092362 C125.493347,72.0387862 125.933277,71.8441038 126.128608,71.1163626 C126.579551,69.4464979 127.035131,67.7766332 127.549831,66.1258891 C127.947449,64.849445 128.518952,63.6234097 128.874258,62.3365362 C130.25085,57.3466421 131.641354,52.3579068 132.892748,47.3355656 C134.018366,42.8219479 135.325404,38.3761215 137.340736,34.1794421 C139.058723,30.6038921 140.917557,27.0961332 142.73292,23.568095 C143.152564,22.7517038 143.493379,22.0007862 144.682755,21.7858244 C146.14629,21.5210332 147.355952,21.7881421 148.42129,22.6491479 C149.018876,23.1317979 149.732965,23.8693891 149.790347,24.5438244 C149.963073,26.5850921 150.354895,28.6611244 149.595016,30.7047097 C149.295933,31.5095126 149.048436,32.4157126 149.104659,33.2541215 C149.277385,35.841195 148.40622,38.2046156 147.467239,40.470695 C145.589277,45.0034332 143.611041,49.4625862 142.58222,54.3128421 C141.927252,57.4034244 141.209685,60.4627185 140.817283,63.6095038 C140.537328,65.8593597 139.878303,68.0674979 139.306799,70.2727391 C139.127697,70.9622391 138.629226,71.5630891 138.38057,72.2427391 C138.254213,72.5874891 138.358545,73.0174126 138.358545,73.6130479" id="Fill-23"></path>
                    <path d="M262.698452,153.743319 C265.008809,155.083499 267.435669,155.390008 269.82949,155.660014 C272.695701,155.983325 275.585675,156.271293 278.467535,155.661752 C279.498096,155.443314 280.198274,154.92474 280.90251,154.081116 C282.605427,152.041008 284.019115,149.865896 284.99751,147.403396 C285.613643,145.852311 286.201376,144.290216 286.822146,142.741449 C287.354815,141.413437 286.973427,140.260987 286.332949,139.245858 C283.678879,138.753937 281.164497,138.122958 278.630408,139.098108 C278.455363,139.165319 278.221777,139.136349 278.027605,139.095211 C276.269045,138.726125 274.723204,139.333928 273.172146,140.058193 C272.204185,140.510134 271.168408,140.818381 270.159293,141.182252 C269.656764,141.363608 269.034255,141.394316 268.657503,141.717049 C265.00765,144.845872 262.396471,148.514128 262.698452,153.743319 M262.492688,160.467972 C262.271274,160.866608 262.15651,160.980752 262.147815,161.102428 C261.894522,164.396384 262.024936,167.667164 262.79235,170.893908 C263.056076,172.004061 263.304153,173.120587 263.635115,174.21104 C264.523089,177.131855 266.231803,179.535834 268.484777,181.551608 C271.258248,184.03149 274.148803,186.412872 277.718669,187.608778 C279.473752,188.196302 281.427643,188.182396 283.284739,188.480214 C285.014318,188.757172 286.724771,189.193469 288.463045,189.369031 C291.135662,189.639037 293.82451,189.880652 296.506401,189.88239 C298.81386,189.882969 300.913815,190.184843 302.730917,191.733031 C303.86349,192.697172 303.951013,194.021708 302.801631,194.948766 C302.118261,195.499787 301.382726,195.82194 300.424038,195.865975 C298.454497,195.956364 296.544076,195.788334 294.588446,195.516011 C291.803962,195.127805 288.956879,195.218772 286.150369,194.958037 C283.538032,194.715264 280.941344,194.741916 278.335962,194.937178 C278.20265,194.947028 278.064701,194.928487 277.931968,194.905311 C275.678994,194.513049 273.399936,194.223922 271.181739,193.685649 C269.825433,193.355964 268.537522,192.694275 267.261204,192.092846 C263.632217,190.383002 260.439102,188.08969 257.586223,185.234349 C255.684497,183.330981 254.234293,181.12574 253.032745,178.829531 C250.245943,173.504737 248.634025,167.801008 248.880943,161.714287 C249.095401,156.425416 249.841949,151.149293 251.891478,146.290925 C253.603669,142.233305 255.628854,138.192487 259.105981,135.180705 C260.16842,134.260599 261.029732,133.084972 262.159408,132.270319 C264.548592,130.547149 267.081522,129.104993 270.159293,128.896984 C271.823955,128.783999 273.465433,128.362187 275.126038,128.143169 C276.299185,127.987887 277.486242,127.936319 278.668083,127.845931 C278.796178,127.836081 278.970064,127.823914 279.052369,127.894602 C280.670083,129.290405 282.512688,128.46764 284.273567,128.439249 C284.737261,128.431137 285.221242,128.376672 285.662911,128.482125 C287.22614,128.854687 288.776038,129.285769 290.329994,129.697731 C290.589083,129.767261 290.893962,129.790437 291.091611,129.944561 C292.299535,130.886105 293.648885,131.716402 294.629599,132.860161 C295.706529,134.116325 296.637395,135.590928 297.246573,137.123472 C297.665637,138.176264 297.84358,139.686211 297.391478,140.643399 C296.619427,142.275602 296.933,144.092637 296.097771,145.65589 C295.210955,147.314746 294.65742,149.076737 294.747841,151.000384 C294.758274,151.218822 294.524688,151.474922 294.353701,151.670184 C293.30865,152.867249 291.929739,153.897443 291.263758,155.274125 C290.129446,157.620743 287.460885,158.386725 286.289478,160.617461 C286.11965,160.940772 285.501777,161.127343 285.063586,161.193975 C283.470217,161.436749 281.823522,161.441384 280.275943,161.840019 C278.73358,162.237496 277.324529,163.048672 275.655229,163.12979 C274.156917,163.202216 272.717146,163.231187 271.253032,162.771134 C268.95021,162.047449 266.606236,161.45529 264.275013,160.826049 C263.707567,160.672505 263.120994,160.591966 262.492688,160.467972" id="Fill-25"></path>
                    <path d="M181.845184,188.139635 C180.913738,188.556812 180.233267,188.945018 179.50121,189.156503 C179.097796,189.273544 178.565706,189.198221 178.164611,189.031929 C176.786859,188.459471 175.426496,188.465844 174.002375,188.842462 C172.438566,189.255582 170.965178,189.060321 169.555547,188.139056 C167.697292,186.92345 165.537636,186.075191 163.917604,184.615074 C162.249464,183.112079 160.832878,181.196544 159.739719,179.221909 C158.074477,176.213603 156.981897,172.91675 156.577904,169.479679 C156.273025,166.881018 156.053929,164.241218 156.148407,161.632126 C156.286936,157.794103 156.58312,153.946229 157.106515,150.142971 C157.546445,146.946935 158.353273,143.796674 159.095184,140.649309 C159.944904,137.045368 160.909388,133.468659 161.804318,129.875147 C161.914445,129.433056 161.905171,128.960835 161.970668,128.308418 C161.152248,128.084765 160.406859,127.788685 159.635968,127.690185 C158.23619,127.511147 156.821343,127.437562 155.412292,127.340221 C148.962305,126.895232 145.634719,122.419276 145.408089,116.776965 C145.365197,115.712585 145.878738,115.089138 146.935382,115.094932 C147.803649,115.099568 148.670178,115.423459 149.537866,115.424618 C154.319713,115.430991 158.835515,116.986132 163.485789,117.749218 C164.208573,117.867418 164.94063,117.934629 165.828604,118.045297 C166.491687,116.122229 167.102025,114.286074 167.756413,112.466141 C168.509337,110.371568 169.228643,108.260771 170.095751,106.213709 C171.033573,104.000356 172.429872,102.130594 174.955846,101.182097 C174.918171,101.166453 175.163929,101.192526 175.272318,101.328109 C176.730057,103.141668 177.991885,105.0995 179.588732,106.816876 C180.78912,108.107226 180.776948,109.771297 180.278477,111.389594 C179.80319,112.933147 179.230528,114.445991 178.722783,115.980274 C178.430076,116.863297 178.016229,117.753274 178.694961,118.901668 C180.186318,118.961347 181.7907,118.999588 183.392764,119.094032 C186.019012,119.249894 188.653955,119.35245 191.265713,119.64795 C193.094407,119.8548 194.821089,120.588335 196.224923,121.789456 C196.905394,122.372344 197.384738,123.271012 197.735987,124.117532 C197.871617,124.444321 197.516891,125.141353 197.18477,125.463506 C196.27477,126.347109 195.283624,127.155388 194.268713,127.918474 C193.922681,128.178629 193.415515,128.308997 192.971528,128.337968 C191.42221,128.437047 189.868834,128.469494 188.316617,128.521641 C185.019751,128.632309 181.722885,128.760359 178.425439,128.835103 C177.573401,128.854224 177.124197,129.181591 176.716725,129.944676 C175.8757,131.519518 175.378968,133.151721 175.214936,134.924721 C175.134948,135.783409 174.832388,136.621238 174.627203,137.467179 C173.90442,140.451729 172.908636,143.401515 172.534203,146.428941 C172.173681,149.337588 171.67405,152.210891 171.265999,155.098679 C171.010388,156.912818 171.110082,158.826615 170.761732,160.687106 C170.616248,161.464097 170.686382,162.295553 170.750719,163.095141 C170.858528,164.423732 171.155292,165.74595 171.167464,167.072803 C171.197025,170.266521 171.911114,173.315385 172.860528,176.332382 C173.511439,178.399724 174.749503,180.106671 176.100592,181.756835 C176.951471,182.7963 177.679471,183.942376 178.587152,184.926218 C179.391662,185.798232 180.379331,186.4999 181.260929,187.304124 C181.492197,187.515029 181.631305,187.826753 181.845184,188.139635" id="Fill-27"></path>
                    <path d="M86.0157503,182.340187 C85.2286293,181.856378 84.8037694,181.595643 84.3957185,181.344758 C83.5459987,181.954299 83.9279669,182.804296 83.6880051,183.459031 C83.4219605,184.182716 83.1773618,185.002005 82.6638204,185.526372 C81.9949414,186.210658 81.2055019,185.982949 80.9522089,185.086599 C80.1355274,182.195334 78.4668076,179.724143 77.211935,177.052475 C76.282228,175.074364 75.8724382,172.818134 75.4493172,170.643602 C74.319642,164.846008 74.5404764,158.955708 74.5572854,153.097275 C74.5752535,147.232469 74.8934637,141.369402 75.0453236,135.504016 C75.0963299,133.547922 74.9769287,131.586614 75.0528586,129.632258 C75.1415401,127.345899 75.3670115,125.064175 75.5171325,122.779555 C75.5976994,121.539034 76.594642,121.289308 77.4814573,121.076664 C78.517814,120.827516 79.6034382,120.730755 80.6710943,120.689037 C81.161451,120.669916 81.7288968,120.833311 82.1468013,121.096364 C83.8827567,122.189714 85.2251516,123.630711 86.186158,125.49294 C86.8364892,126.752581 87.1216611,127.957758 86.9547312,129.359934 C86.7315783,131.234911 86.6272471,133.125531 86.5234955,135.012675 C86.4950943,135.53009 86.6110178,136.068943 86.7356357,136.579405 C86.9414,137.423608 87.3517694,138.241158 87.4213236,139.090575 C87.6462153,141.834669 87.7534446,144.588034 87.9099414,147.337343 C87.9325465,147.736558 87.9702217,148.134614 88.0055783,148.532669 C88.3243682,152.171375 88.7225656,155.774737 88.2582917,159.470805 C87.9719605,161.753687 88.6020051,164.141443 88.6999605,166.486902 C88.7753108,168.292349 88.7822662,170.117496 88.6020051,171.911934 C88.3945019,173.976958 88.0438331,176.041402 87.5685465,178.061811 C87.2399032,179.459352 86.5942089,180.782728 86.0157503,182.340187" id="Fill-29"></path>
                    <path d="M82.6761662,98.3209618 C84.2533064,98.2746088 85.4786185,98.6158824 86.0165038,100.343109 C86.1486567,100.768397 86.9705548,100.997265 87.4945293,101.280597 C89.9874656,102.628309 90.4268159,104.780244 88.5192936,106.866706 C86.4773,109.101497 84.3883573,111.316009 81.8171726,112.960959 C80.3495803,113.899606 78.8553255,114.922268 77.2254401,115.440841 C75.7398796,115.913641 74.0555102,115.798338 72.455765,115.841215 C72.1613191,115.848747 71.7503701,115.434468 71.5695293,115.115212 C70.6067841,113.418694 69.6579497,111.711168 68.803593,109.959026 C68.5902936,109.52215 68.7276631,108.904497 68.7386758,108.370859 C68.7485293,107.913124 68.887058,107.446697 68.8331535,106.999971 C68.6499943,105.475538 68.8818414,104.809215 70.2723446,104.365965 C71.9433828,103.832906 73.0614656,102.796918 74.256058,101.528006 C76.4678796,99.1779118 79.4992809,98.3725294 82.6761662,98.3209618" id="Fill-31"></path>
                </g>
            </g>
        </g>
    </g>
</svg>